<svg xmlns="http://www.w3.org/2000/svg" viewBox="0 0 1280 640"><rect width="1280" height="640" fill="#fff"/><path d="M349.3,412v3.65H334v-32h4V412Z" transform="translate(0)" fill="#9091ac"/><path d="M357.89,387.35a2.31,2.31,0,0,1-2.36,2.3,2.35,2.35,0,0,1,.05-4.7A2.33,2.33,0,0,1,357.89,387.35Zm-.53,28.32h-3.65V393.54h3.65Z" transform="translate(0)" fill="#9091ac"/><path d="M374.93,399.59v-.24c0-2.06-1.68-3.36-4.23-3.36s-4,1.25-4,3.17,1,2.64,4.94,3.74c2.84.77,4.32,1.49,5.38,2.55a6.18,6.18,0,0,1,1.78,4.32c0,3.84-3.17,6.43-7.88,6.43-5,0-7.87-2.35-8.25-6.82h3.6c.24,2.5,1.87,3.84,4.65,3.84,2.5,0,4.13-1.29,4.13-3.26s-1.25-2.88-5-3.84c-4.8-1.3-7-3.31-7-6.67,0-3.84,3.12-6.44,7.78-6.44s7.53,2.4,7.73,6.58Z" transform="translate(0)" fill="#9091ac"/><path d="M388.32,411.16c.05,1.1.33,1.34,1.68,1.34h1.68v3.17h-3.41c-2.59,0-3.6-1-3.6-3.45V396.76H381.6v-3.22h3.07v-7h3.65v7h3.36v3.22h-3.36Z" transform="translate(0)" fill="#9091ac"/><path d="M407.09,399.59v-.24c0-2.06-1.68-3.36-4.23-3.36s-4,1.25-4,3.17,1,2.64,4.94,3.74c2.83.77,4.32,1.49,5.38,2.55a6.17,6.17,0,0,1,1.77,4.32c0,3.84-3.16,6.43-7.87,6.43-5,0-7.87-2.35-8.25-6.82h3.6c.24,2.5,1.87,3.84,4.65,3.84,2.5,0,4.13-1.29,4.13-3.26s-1.25-2.88-5-3.84c-4.8-1.3-7-3.31-7-6.67,0-3.84,3.12-6.44,7.78-6.44s7.53,2.4,7.72,6.58Z" transform="translate(0)" fill="#9091ac"/><path d="M447.69,393.54h3.65v22.13h-3.65V411.4c-2.2,3.31-4.7,4.8-8.06,4.8-6.1,0-10.42-4.8-10.42-11.52S433.63,393,439.73,393a9.26,9.26,0,0,1,8,4.18Zm-12.81,5.38a10,10,0,0,0-1.83,5.86c0,4.7,3.07,8.25,7.11,8.25s7.58-3.89,7.58-8.64-3.07-8.11-7.49-8.11A6,6,0,0,0,434.88,398.92Z" transform="translate(0)" fill="#9091ac"/><path d="M468.86,399.59v-.24c0-2.06-1.68-3.36-4.22-3.36s-4,1.25-4,3.17,1,2.64,5,3.74c2.83.77,4.32,1.49,5.37,2.55a6.14,6.14,0,0,1,1.78,4.32c0,3.84-3.17,6.43-7.87,6.43-5,0-7.88-2.35-8.26-6.82h3.6c.24,2.5,1.87,3.84,4.66,3.84,2.49,0,4.13-1.29,4.13-3.26s-1.25-2.88-5.05-3.84c-4.8-1.3-7-3.31-7-6.67,0-3.84,3.12-6.44,7.78-6.44s7.54,2.4,7.73,6.58Z" transform="translate(0)" fill="#9091ac"/><path d="M488.59,399.59v-.24c0-2.06-1.68-3.36-4.23-3.36s-4,1.25-4,3.17,1,2.64,4.94,3.74c2.84.77,4.33,1.49,5.38,2.55a6.14,6.14,0,0,1,1.78,4.32c0,3.84-3.17,6.43-7.88,6.43-5,0-7.87-2.35-8.25-6.82H480c.24,2.5,1.87,3.84,4.65,3.84,2.5,0,4.13-1.29,4.13-3.26s-1.25-2.88-5-3.84c-4.8-1.3-7-3.31-7-6.67,0-3.84,3.12-6.44,7.78-6.44s7.54,2.4,7.73,6.58Z" transform="translate(0)" fill="#9091ac"/><path d="M502.27,387.35a2.31,2.31,0,0,1-2.35,2.3,2.35,2.35,0,0,1,0-4.7A2.33,2.33,0,0,1,502.27,387.35Zm-.53,28.32h-3.65V393.54h3.65Z" transform="translate(0)" fill="#9091ac"/><path d="M525.41,393.54h3.64v22.28c0,3.69-.91,6.19-2.92,8.11a11.41,11.41,0,0,1-8.17,2.93,12.47,12.47,0,0,1-9.79-4l2.5-2.49a13.4,13.4,0,0,0,2.11,1.92,10.72,10.72,0,0,0,5.18,1.29,8,8,0,0,0,5.77-2.16,7.57,7.57,0,0,0,1.68-5.28v-4.65c-2.16,3.26-4.71,4.75-8.17,4.75-5.85,0-10.22-4.94-10.22-11.52a12.72,12.72,0,0,1,3.5-9.07,9.74,9.74,0,0,1,7-2.6c3.36,0,5.62,1.25,7.88,4.32Zm-14.55,11c0,4.75,3.07,8.3,7.25,8.3a7.51,7.51,0,0,0,5.62-2.69,8.92,8.92,0,0,0,1.58-5.47c0-2.88-.43-4.42-1.73-5.86a7.5,7.5,0,0,0-5.38-2.44C513.88,396.38,510.86,399.73,510.86,404.54Z" transform="translate(0)" fill="#9091ac"/><path d="M540,393.54v3.12c1.92-2.59,3.84-3.65,6.58-3.65a7.73,7.73,0,0,1,5.14,1.83c1.39,1.34,1.87,2.88,1.87,5.9v14.93H550V401.56c0-2-.24-3-.82-3.79a4.25,4.25,0,0,0-3.45-1.49,5.52,5.52,0,0,0-4.23,1.87,5.24,5.24,0,0,0-1.44,4v13.49H536.4V393.54Z" transform="translate(0)" fill="#9091ac"/><path d="M564.48,393.54v3.08c1.68-2.55,3.55-3.61,6.28-3.61a5.72,5.72,0,0,1,6,4,7.22,7.22,0,0,1,7-4c2.54,0,4.46.82,5.61,2.36,1.06,1.39,1.35,2.64,1.35,6.14v14.16H587V402.38c0-2.69-.1-3.32-.63-4.23a4.32,4.32,0,0,0-3.84-1.87c-3.21,0-5,2.16-5,6.1v13.29h-3.65V402.42a8.27,8.27,0,0,0-.72-4.22,3.8,3.8,0,0,0-3.6-1.92c-3.21,0-5.13,2.3-5.13,6.14v13.25h-3.65V393.54Z" transform="translate(0)" fill="#9091ac"/><path d="M600,405.78a7,7,0,0,0,1.44,4,7.23,7.23,0,0,0,6,3,7.66,7.66,0,0,0,6.62-3.79l3.22,1.2a10.85,10.85,0,0,1-9.84,5.95c-6.58,0-11.28-4.8-11.28-11.52S600.76,393,607.24,393a11,11,0,0,1,11.24,11.33c0,.29,0,.92-.05,1.44Zm14.6-2.68a6.93,6.93,0,0,0-1.25-3.8,7.6,7.6,0,0,0-6.1-3,7.11,7.11,0,0,0-6,3.07A8.87,8.87,0,0,0,600,403.1Z" transform="translate(0)" fill="#9091ac"/><path d="M627.4,393.54v3.12c1.92-2.59,3.84-3.65,6.58-3.65a7.75,7.75,0,0,1,5.14,1.83c1.39,1.34,1.87,2.88,1.87,5.9v14.93h-3.65V401.56c0-2-.24-3-.82-3.79a4.27,4.27,0,0,0-3.45-1.49,5.51,5.51,0,0,0-4.23,1.87,5.24,5.24,0,0,0-1.44,4v13.49h-3.65V393.54Z" transform="translate(0)" fill="#9091ac"/><path d="M652.07,411.16c0,1.1.34,1.34,1.68,1.34h1.68v3.17H652c-2.6,0-3.61-1-3.61-3.45V396.76h-3.07v-3.22h3.07v-7h3.65v7h3.36v3.22h-3.36Z" transform="translate(0)" fill="#9091ac"/><path d="M670.84,399.59v-.24c0-2.06-1.68-3.36-4.22-3.36s-4,1.25-4,3.17,1,2.64,5,3.74c2.83.77,4.32,1.49,5.37,2.55a6.14,6.14,0,0,1,1.78,4.32c0,3.84-3.17,6.43-7.87,6.43-5,0-7.88-2.35-8.26-6.82h3.6c.24,2.5,1.87,3.84,4.66,3.84,2.49,0,4.12-1.29,4.12-3.26s-1.24-2.88-5-3.84c-4.8-1.3-7-3.31-7-6.67,0-3.84,3.12-6.44,7.78-6.44s7.54,2.4,7.73,6.58Z" transform="translate(0)" fill="#9091ac"/><path d="M698.92,387.35a2.31,2.31,0,0,1-2.35,2.3,2.35,2.35,0,0,1,0-4.7A2.33,2.33,0,0,1,698.92,387.35Zm-.53,28.32h-3.65V393.54h3.65Z" transform="translate(0)" fill="#9091ac"/><path d="M709.38,393.54v3.12c1.92-2.59,3.84-3.65,6.58-3.65a7.73,7.73,0,0,1,5.14,1.83c1.39,1.34,1.87,2.88,1.87,5.9v14.93h-3.65V401.56c0-2-.24-3-.82-3.79a4.25,4.25,0,0,0-3.45-1.49,5.52,5.52,0,0,0-4.23,1.87,5.24,5.24,0,0,0-1.44,4v13.49h-3.64V393.54Z" transform="translate(0)" fill="#9091ac"/><path d="M761.27,393.54h3.65v22.13h-3.65V411.4c-2.21,3.31-4.7,4.8-8.06,4.8-6.1,0-10.42-4.8-10.42-11.52S747.21,393,753.3,393a9.27,9.27,0,0,1,8,4.18Zm-12.82,5.38a10.11,10.11,0,0,0-1.82,5.86c0,4.7,3.07,8.25,7.1,8.25s7.59-3.89,7.59-8.64-3.07-8.11-7.49-8.11A6,6,0,0,0,748.45,398.92Z" transform="translate(0)" fill="#9091ac"/><path d="M772.26,415.67v-32h3.65v32Z" transform="translate(0)" fill="#9091ac"/><path d="M783.25,415.67v-32h3.65v32Z" transform="translate(0)" fill="#9091ac"/><path d="M825.88,412.94a11.38,11.38,0,0,1-8.16,3.26c-6.34,0-10.85-4.8-10.85-11.52,0-6.87,4.56-11.67,11-11.67a10.92,10.92,0,0,1,8.06,3.32l-2.35,2.35a8.1,8.1,0,0,0-5.62-2.3c-4.36,0-7.39,3.35-7.39,8.16s3,8.3,7.35,8.3a7.74,7.74,0,0,0,5.66-2.4Z" transform="translate(0)" fill="#9091ac"/><path d="M830.05,415.67v-32h3.65v32Z" transform="translate(0)" fill="#9091ac"/><path d="M857.75,393.54h3.65v22.13h-3.65V411.4c-2.21,3.31-4.71,4.8-8.07,4.8-6.09,0-10.41-4.8-10.41-11.52S843.68,393,849.78,393a9.27,9.27,0,0,1,8,4.18Zm-12.82,5.38a10.11,10.11,0,0,0-1.82,5.86c0,4.7,3.07,8.25,7.1,8.25s7.59-3.89,7.59-8.64-3.08-8.11-7.49-8.11A6,6,0,0,0,844.93,398.92Z" transform="translate(0)" fill="#9091ac"/><path d="M878.92,399.59v-.24c0-2.06-1.68-3.36-4.23-3.36s-4,1.25-4,3.17,1,2.64,4.94,3.74c2.83.77,4.32,1.49,5.38,2.55a6.17,6.17,0,0,1,1.77,4.32c0,3.84-3.16,6.43-7.87,6.43-5,0-7.87-2.35-8.26-6.82h3.61c.24,2.5,1.87,3.84,4.65,3.84,2.5,0,4.13-1.29,4.13-3.26s-1.25-2.88-5-3.84c-4.8-1.3-7-3.31-7-6.67,0-3.84,3.12-6.44,7.78-6.44s7.53,2.4,7.72,6.58Z" transform="translate(0)" fill="#9091ac"/><path d="M898.64,399.59v-.24c0-2.06-1.68-3.36-4.22-3.36s-4,1.25-4,3.17,1,2.64,4.94,3.74c2.83.77,4.32,1.49,5.38,2.55a6.17,6.17,0,0,1,1.77,4.32c0,3.84-3.17,6.43-7.87,6.43-5,0-7.87-2.35-8.26-6.82H890c.24,2.5,1.88,3.84,4.66,3.84,2.5,0,4.13-1.29,4.13-3.26s-1.25-2.88-5-3.84c-4.8-1.3-7-3.31-7-6.67,0-3.84,3.12-6.44,7.77-6.44s7.54,2.4,7.73,6.58Z" transform="translate(0)" fill="#9091ac"/><path d="M910.26,405.78a6.9,6.9,0,0,0,1.44,4,7.21,7.21,0,0,0,5.95,3,7.68,7.68,0,0,0,6.63-3.79l3.21,1.2a10.83,10.83,0,0,1-9.84,5.95c-6.57,0-11.28-4.8-11.28-11.52S911,393,917.51,393a11,11,0,0,1,11.23,11.33c0,.29,0,.92,0,1.44Zm14.59-2.68a6.85,6.85,0,0,0-1.25-3.8,7.58,7.58,0,0,0-6.09-3,7.09,7.09,0,0,0-6,3.07,8.73,8.73,0,0,0-1.25,3.75Z" transform="translate(0)" fill="#9091ac"/><path d="M944.15,399.59v-.24c0-2.06-1.68-3.36-4.23-3.36s-4,1.25-4,3.17,1,2.64,4.94,3.74c2.84.77,4.32,1.49,5.38,2.55a6.18,6.18,0,0,1,1.78,4.32c0,3.84-3.17,6.43-7.88,6.43-5,0-7.87-2.35-8.25-6.82h3.6c.24,2.5,1.87,3.84,4.65,3.84,2.5,0,4.13-1.29,4.13-3.26s-1.25-2.88-5-3.84c-4.8-1.3-7-3.31-7-6.67,0-3.84,3.12-6.44,7.78-6.44s7.53,2.4,7.73,6.58Z" transform="translate(0)" fill="#9091ac"/><path d="M385.44,465.68a11.3,11.3,0,0,1-11.33,11.52c-6.58,0-11.18-4.8-11.18-11.62S367.53,454,374.25,454C380.78,454,385.44,458.86,385.44,465.68Zm-18.77-.05c0,4.9,3,8.21,7.54,8.21s7.49-3.41,7.49-8.21-3-8.25-7.45-8.25S366.67,460.69,366.67,465.63Z" transform="translate(0)" fill="#9091ac"/><path d="M394.65,454.54v3.12c1.92-2.59,3.84-3.65,6.58-3.65a7.73,7.73,0,0,1,5.14,1.83c1.39,1.34,1.87,2.88,1.87,5.9v14.93h-3.65V462.56c0-2-.24-3-.82-3.79a4.25,4.25,0,0,0-3.45-1.49,5.52,5.52,0,0,0-4.23,1.87,5.24,5.24,0,0,0-1.44,4v13.49H391V454.54Z" transform="translate(0)" fill="#9091ac"/><path d="M434.2,476.67h-4v-32h4l11.85,24,12-24H462v32h-4V453.25L446,477,434.2,453.2Z" transform="translate(0)" fill="#9091ac"/><path d="M473.76,448.35a2.31,2.31,0,0,1-2.36,2.3,2.35,2.35,0,0,1,.05-4.7A2.33,2.33,0,0,1,473.76,448.35Zm-.53,28.32h-3.65V454.54h3.65Z" transform="translate(0)" fill="#9091ac"/><path d="M497.8,473.94a11.35,11.35,0,0,1-8.16,3.26c-6.33,0-10.85-4.8-10.85-11.52,0-6.87,4.57-11.67,11-11.67a10.93,10.93,0,0,1,8.06,3.32l-2.35,2.35a8.1,8.1,0,0,0-5.62-2.3c-4.37,0-7.39,3.35-7.39,8.16s3,8.3,7.34,8.3a7.76,7.76,0,0,0,5.67-2.4Z" transform="translate(0)" fill="#9091ac"/><path d="M506.16,454.54v3.75a6.23,6.23,0,0,1,2-2.93A6.92,6.92,0,0,1,512.4,454h.86v3.7a7.84,7.84,0,0,0-1,0,5.67,5.67,0,0,0-4.8,2.55c-1,1.39-1.29,2.68-1.29,5.23v11.23h-3.65V454.54Z" transform="translate(0)" fill="#9091ac"/><path d="M537.69,465.68a11.3,11.3,0,0,1-11.33,11.52c-6.57,0-11.18-4.8-11.18-11.62S519.79,454,526.51,454C533,454,537.69,458.86,537.69,465.68Zm-18.77-.05c0,4.9,3,8.21,7.54,8.21s7.49-3.41,7.49-8.21-3-8.25-7.44-8.25S518.92,460.69,518.92,465.63Z" transform="translate(0)" fill="#9091ac"/><path d="M553.48,460.59v-.24c0-2.06-1.68-3.36-4.22-3.36s-4,1.25-4,3.17,1,2.64,5,3.74c2.83.77,4.32,1.49,5.37,2.55a6.14,6.14,0,0,1,1.78,4.32c0,3.84-3.17,6.43-7.87,6.43-5,0-7.87-2.35-8.26-6.82h3.6c.24,2.5,1.87,3.84,4.66,3.84,2.49,0,4.13-1.29,4.13-3.26s-1.25-2.88-5-3.84c-4.8-1.3-7-3.31-7-6.67,0-3.84,3.12-6.44,7.77-6.44s7.54,2.4,7.73,6.58Z" transform="translate(0)" fill="#9091ac"/><path d="M583.72,465.68a11.3,11.3,0,0,1-11.33,11.52c-6.57,0-11.18-4.8-11.18-11.62S565.82,454,572.54,454C579.07,454,583.72,458.86,583.72,465.68ZM565,465.63c0,4.9,3,8.21,7.54,8.21s7.49-3.41,7.49-8.21-3-8.25-7.44-8.25S565,460.69,565,465.63Z" transform="translate(0)" fill="#9091ac"/><path d="M593.32,476.67h-3.65V457.76h-3v-3.22h3v-3c0-4.37,2.26-7,6.1-7,.19,0,.62,0,1,0v3.27c-2.64.29-3.36,1.05-3.46,3.65v3h3.46v3.22h-3.46Z" transform="translate(0)" fill="#9091ac"/><path d="M606.38,472.16c0,1.1.33,1.34,1.68,1.34h1.68v3.17h-3.41c-2.59,0-3.6-1-3.6-3.45V457.76h-3.07v-3.22h3.07v-7h3.65v7h3.36v3.22h-3.36Z" transform="translate(0)" fill="#9091ac"/><path d="M629.13,448.59v-3.46h18.14l-9.41,12c5.57,0,9.51,4,9.51,9.65a10.25,10.25,0,0,1-10.61,10.46c-5,0-8.64-2.83-9.75-7.68l3.46-.62a6.09,6.09,0,0,0,6.1,4.8,6.76,6.76,0,0,0,7-6.68c0-3.84-2.88-6.53-7.06-6.53a6.68,6.68,0,0,0-3.84,1.11l-1.58-1.39,9.26-11.62Z" transform="translate(0)" fill="#9091ac"/><path d="M659.32,458a7.82,7.82,0,0,1,3.12-.62,9.39,9.39,0,0,1,9.46,9.6,10.37,10.37,0,0,1-10.32,10.32,10.08,10.08,0,0,1-10.13-10.32c0-2.35.62-4.13,2.44-7.06l9.17-14.74h4.47Zm-4.08,9a6.46,6.46,0,1,0,12.91.14,6.46,6.46,0,0,0-12.91-.14Z" transform="translate(0)" fill="#9091ac"/><path d="M691.43,448.3H681.11v8.59a12.67,12.67,0,0,1,4.71-.91c5.61,0,9.84,4.42,9.84,10.42S691.14,477,684.86,477a9.72,9.72,0,0,1-9.56-6.58l3.46-1.3a8.89,8.89,0,0,0,1.63,2.45,6.87,6.87,0,0,0,11.33-5.28c0-4.08-2.88-6.81-7.1-6.81a10.08,10.08,0,0,0-7.11,3.26v-18.1h13.92Z" transform="translate(0)" fill="#9091ac"/><path d="M719.7,458.81h12.63v3.46H719.7v11h12.63v3.45H715.67v-32h16.66v3.46H719.7Z" transform="translate(0)" fill="#9091ac"/><path d="M754.65,444.65h3.65v32h-3.65v-3.79c-2.21,3-4.56,4.32-7.92,4.32-6.1,0-10.42-4.75-10.42-11.47S740.73,454,746.73,454a9.49,9.49,0,0,1,7.92,3.89Zm-14.5,21.13c0,4.84,2.93,8.25,7.1,8.25s7.4-3.55,7.4-8.35c0-5-2.93-8.4-7.15-8.4S740.15,460.73,740.15,465.78Z" transform="translate(0)" fill="#9091ac"/><path d="M782.2,454.54V468.7c0,3-.58,4.71-2.21,6.2a9.93,9.93,0,0,1-12.77,0A8.1,8.1,0,0,1,765,468.7V454.54h3.65v14.07c0,3.12,2,5.33,5,5.33a5.26,5.26,0,0,0,3.93-1.68c.72-.87,1-1.78,1-3.56V454.54Z" transform="translate(0)" fill="#9091ac"/><path d="M806.15,473.94A11.36,11.36,0,0,1,798,477.2c-6.34,0-10.85-4.8-10.85-11.52,0-6.87,4.56-11.67,11-11.67a11,11,0,0,1,8.07,3.32l-2.36,2.35a8.1,8.1,0,0,0-5.61-2.3c-4.37,0-7.4,3.35-7.4,8.16s3,8.3,7.35,8.3a7.73,7.73,0,0,0,5.66-2.4Z" transform="translate(0)" fill="#9091ac"/><path d="M826.84,454.54h3.65v22.13h-3.65V472.4c-2.21,3.31-4.71,4.8-8.07,4.8-6.09,0-10.41-4.8-10.41-11.52S812.77,454,818.87,454a9.27,9.27,0,0,1,8,4.18ZM814,459.92a10.11,10.11,0,0,0-1.82,5.86c0,4.7,3.07,8.25,7.1,8.25,4.18,0,7.59-3.89,7.59-8.64s-3.08-8.11-7.49-8.11A6,6,0,0,0,814,459.92Z" transform="translate(0)" fill="#9091ac"/><path d="M841.57,472.16c0,1.1.34,1.34,1.68,1.34h1.68v3.17h-3.41c-2.59,0-3.6-1-3.6-3.45V457.76h-3.07v-3.22h3.07v-7h3.65v7h3.36v3.22h-3.36Z" transform="translate(0)" fill="#9091ac"/><path d="M854,448.35a2.31,2.31,0,0,1-2.36,2.3,2.35,2.35,0,0,1,0-4.7A2.33,2.33,0,0,1,854,448.35Zm-.53,28.32h-3.65V454.54h3.65Z" transform="translate(0)" fill="#9091ac"/><path d="M881.51,465.68a11.3,11.3,0,0,1-11.33,11.52c-6.58,0-11.18-4.8-11.18-11.62S863.6,454,870.33,454C876.85,454,881.51,458.86,881.51,465.68Zm-18.77-.05c0,4.9,3,8.21,7.54,8.21s7.49-3.41,7.49-8.21-3-8.25-7.44-8.25S862.74,460.69,862.74,465.63Z" transform="translate(0)" fill="#9091ac"/><path d="M890.72,454.54v3.12c1.92-2.59,3.84-3.65,6.58-3.65a7.73,7.73,0,0,1,5.14,1.83c1.39,1.34,1.87,2.88,1.87,5.9v14.93h-3.65V462.56c0-2-.24-3-.82-3.79a4.25,4.25,0,0,0-3.45-1.49,5.52,5.52,0,0,0-4.23,1.87,5.24,5.24,0,0,0-1.44,4v13.49h-3.64V454.54Z" transform="translate(0)" fill="#9091ac"/><path d="M915.88,474.61a2.5,2.5,0,1,1-2.5-2.55A2.45,2.45,0,0,1,915.88,474.61Z" transform="translate(0)" fill="#9091ac"/><rect x="434.81" y="219.57" width="60.71" height="9.34" fill="#464775"/><rect x="434.81" y="290.6" width="60.71" height="9.34" fill="#464775"/><rect x="434.81" y="255.08" width="60.71" height="9.34" fill="#464775"/><path d="M497.27,175.84c-5.84-14-18.68-24.51-32.69-24.51s-26.85,10.5-32.68,24.51c-24.52,2.34-43.2,23.35-43.2,47.87v88.72c0,14,10.51,24.52,24.52,24.52h103.9c14,0,24.51-10.51,24.51-24.52V223.71C541.63,199.19,521.79,179.35,497.27,175.84Zm-32.69-15.17c9.34,0,17.51,5.83,22.18,15.17H442.4C447.07,166.5,455.24,160.67,464.58,160.67ZM532.29,313.6a15.45,15.45,0,0,1-15.17,15.18H413.22A15.46,15.46,0,0,1,398,313.6V224.88a39.36,39.36,0,0,1,39.69-39.7h56a39.36,39.36,0,0,1,39.69,39.7V313.6Z" transform="translate(0)" fill="#464775"/><path d="M590.7,223.62h17.71c20.1,0,32.2,12.2,32.2,32.31,0,11.3-3.7,20.6-10.5,26.7-5.8,5.2-13.5,7.7-23.2,7.7H590.7Zm8.4,59.51h3c11.31,0,16.11-1.2,20.91-5,6-4.8,9-12.2,9-22.1,0-16.11-8.6-25.31-23.91-25.31h-9Z" transform="translate(0)" fill="#464775"/><path d="M657.4,269.73c.4,3.9,1.1,5.9,3,8.4a15,15,0,0,0,12.4,6.3,16,16,0,0,0,13.8-7.9l6.71,2.5a22.6,22.6,0,0,1-20.51,12.4c-13.7,0-23.5-10-23.5-24,0-14.2,9.7-24.31,23.2-24.31s23.41,10.11,23.41,23.61c0,.6,0,1.9-.1,3Zm30.4-5.6a14.36,14.36,0,0,0-2.59-7.9,15.85,15.85,0,0,0-12.71-6.3,14.81,14.81,0,0,0-12.4,6.4c-1.4,2.2-2,4.1-2.6,7.8Z" transform="translate(0)" fill="#464775"/><path d="M741.1,244.22l-17.4,46.11h-8l-16.9-46.11h8l13,35.21,13.4-35.21Z" transform="translate(0)" fill="#464775"/><path d="M791.31,267.43c0,13.5-10.4,24-23.6,24-13.71,0-23.31-10-23.31-24.2s9.6-24.11,23.6-24.11C781.61,243.12,791.31,253.23,791.31,267.43Zm-39.11-.1c0,10.2,6.3,17.1,15.7,17.1,9.1,0,15.61-7.1,15.61-17.1,0-10.3-6.21-17.2-15.51-17.2C758.5,250.13,752.2,257,752.2,267.33Z" transform="translate(0)" fill="#464775"/><path d="M811.6,231.32a4.82,4.82,0,0,1-4.9,4.8,4.9,4.9,0,0,1,.1-9.8A4.85,4.85,0,0,1,811.6,231.32Zm-1.1,59h-7.6V244.22h7.6Z" transform="translate(0)" fill="#464775"/><path d="M833.4,244.22V252c1.4-3.3,2.4-4.7,4.2-6.11a14.51,14.51,0,0,1,8.8-2.8h1.8v7.71a17,17,0,0,0-2.1-.1,11.82,11.82,0,0,0-10,5.3c-2,2.9-2.7,5.6-2.7,10.9v23.4h-7.6V244.22Z" transform="translate(0)" fill="#464775"/><path d="M879.1,256.83v-.5c0-4.3-3.5-7-8.8-7-5.1,0-8.3,2.6-8.3,6.6s2,5.5,10.3,7.8c5.9,1.6,9,3.1,11.2,5.3a12.88,12.88,0,0,1,3.7,9c0,8-6.6,13.4-16.4,13.4-10.5,0-16.4-4.9-17.2-14.2h7.5c.5,5.2,3.9,8,9.7,8,5.2,0,8.6-2.7,8.6-6.8s-2.6-6-10.5-8c-10-2.7-14.5-6.9-14.5-13.9,0-8,6.5-13.41,16.2-13.41s15.7,5,16.1,13.71Z" transform="translate(0)" fill="#464775"/></svg>