<svg xmlns="http://www.w3.org/2000/svg" viewBox="0 0 32 32"><rect width="32" height="32" rx="6.5" fill="#464775"/><rect x="12.41" y="13.09" width="7.18" height="1.11" fill="#d3d2e0"/><rect x="12.41" y="21.5" width="7.18" height="1.11" fill="#d3d2e0"/><rect x="12.41" y="17.3" width="7.18" height="1.11" fill="#d3d2e0"/><path d="M19.8,7.92A4.44,4.44,0,0,0,15.93,5a4.44,4.44,0,0,0-3.87,2.9A5.68,5.68,0,0,0,7,13.58v10.5A2.83,2.83,0,0,0,9.85,27h12.3a2.83,2.83,0,0,0,2.9-2.9V13.58A5.92,5.92,0,0,0,19.8,7.92Zm-3.87-1.8a3,3,0,0,1,2.63,1.8H13.31A3,3,0,0,1,15.93,6.12Zm8,18.1A1.83,1.83,0,0,1,22.15,26H9.85a1.83,1.83,0,0,1-1.79-1.8V13.72A4.66,4.66,0,0,1,12.75,9h6.63a4.66,4.66,0,0,1,4.7,4.7v10.5Z" transform="translate(0 0)" fill="#d3d2e0"/></svg>